<svg width="72" height="61" viewBox="0 0 72 61" fill="none" xmlns="http://www.w3.org/2000/svg">
<path d="M63.3394 32.2188L60.0665 42.7914L54.952 45.6966C54.3155 46.0298 53.8374 46.6022 53.6229 47.2879C53.4084 47.9735 53.475 48.7163 53.8082 49.3529C54.1414 49.9894 54.7138 50.4675 55.3994 50.682C56.0851 50.8965 56.8279 50.8298 57.4644 50.4966L62.2947 48.1585M57.4644 50.4878L51.4935 53.4145L42.8497 53.4423C42.3622 53.4396 41.8901 53.6131 41.5205 53.9309C41.1509 54.2488 40.9086 54.6895 40.8383 55.1719C40.768 55.6543 40.8744 56.1459 41.138 56.556C41.4015 56.9661 41.8044 57.2671 42.2724 57.4036L46.0619 58.5404C48.5322 59.2845 51.1268 59.5249 53.6917 59.2473C56.2567 58.9696 58.7397 58.1797 60.9936 56.9244C63.2475 55.669 65.2264 53.9738 66.8127 51.9392C68.3991 49.9046 69.5607 47.5722 70.2286 45.0802L70.2842 44.8731M8.15074 32.2188L11.4248 42.7914L16.5394 45.6966C17.1759 46.03 17.6539 46.6025 17.8683 47.2883C18.0827 47.9741 18.0159 48.717 17.6825 49.3535C17.3492 49.99 16.7767 50.468 16.0909 50.6824C15.4051 50.8968 14.6622 50.83 14.0257 50.4966L9.19537 48.1585M14.0257 50.4878L19.9979 53.4145L25.2425 53.4423C25.5792 53.4427 25.9105 53.5271 26.2063 53.688C26.502 53.8489 26.7529 54.0811 26.9362 54.3636C27.1194 54.6461 27.2291 54.9699 27.2554 55.3055C27.2817 55.6412 27.2237 55.9781 27.0867 56.2857C24.837 61.3686 14.9427 58.7716 13.6341 58.3244C10.6441 57.3006 7.95171 55.557 5.79431 53.2474C3.63691 50.9378 2.08068 48.133 1.26274 45.0802L1 44.1" stroke="#4D7AE3" stroke-width="2" stroke-linecap="round" stroke-linejoin="round"/>
<path d="M38.5001 34.1999C38.2001 34.1999 38.0001 34.1999 37.7001 34.2999C35.4001 34.7999 34.1001 36.1999 34.2001 38.2999C34.2001 39.4999 35.0001 40.6999 36.1001 41.1999L37.9001 42.0999L37.7001 44.6999C37.7001 44.9999 37.8001 45.2999 38.1001 45.4999C38.3001 45.6999 38.5001 45.6999 38.7001 45.6999C38.8001 45.6999 38.9001 45.6999 38.9001 45.6999C42.7001 44.7999 44.4001 42.3999 45.2001 40.6999C45.8001 39.3999 45.4001 37.7999 44.4001 36.8999C41.8001 34.5999 39.4001 34.2999 38.5001 34.1999ZM43.4001 39.8999C42.9001 40.9999 41.9001 42.4999 39.8001 43.3999L39.9001 41.4999C39.9001 41.0999 39.7001 40.6999 39.3001 40.4999L36.9001 39.3999C36.4001 39.1999 36.1001 38.6999 36.1001 38.1999C36.1001 37.4999 36.3001 36.5999 38.0001 36.1999C38.1001 36.1999 38.2001 36.1999 38.2001 36.1999C38.2001 36.1999 38.2001 36.1999 38.3001 36.1999C39.0001 36.1999 40.9001 36.4999 43.0001 38.2999C43.5001 38.6999 43.6001 39.3999 43.4001 39.8999Z" fill="#4D7AE3"/>
<path d="M47.1001 32.8999C48.0001 32.8999 48.9001 33.2999 49.5001 33.8999L49.2001 36.7999L48.0001 35.3999C47.8001 35.0999 47.4001 34.8999 47.0001 34.8999H45.5001C44.8001 34.8999 44.2001 34.6999 43.6001 34.2999L41.4001 32.7999C41.1001 32.5999 40.8001 32.5999 40.4001 32.5999C39.3001 32.6999 37.1001 32.8999 35.0001 32.2999C34.5001 32.0999 34.0001 31.6999 33.7001 31.1999C33.4001 30.6999 33.4001 30.0999 33.6001 29.4999C34.5001 26.9999 36.7001 25.6999 39.5001 26.0999L39.6001 25.9999C40.2001 25.2999 41.4001 24.1999 43.4001 23.7999L46.0001 25.7999C43.4001 25.2999 41.9001 26.4999 41.1001 27.2999C40.6001 27.7999 39.9001 28.0999 39.2001 27.9999C37.3001 27.6999 36.1001 28.4999 35.5001 30.0999V30.2999C35.5001 30.2999 35.5001 30.3999 35.6001 30.3999C37.4001 30.8999 39.3001 30.6999 40.2001 30.5999C41.1001 30.4999 41.9001 30.6999 42.6001 31.1999L44.8001 32.6999C45.0001 32.7999 45.3001 32.8999 45.6001 32.8999H47.1001Z" fill="#4D7AE3"/>
<path d="M25.9001 37.9999C25.7001 37.6999 25.0001 37.6999 24.4001 37.7999L24.0001 35.8999C25.1001 35.6999 26.5001 35.6999 27.4001 36.6999C28.4001 37.8999 28.1001 39.7999 26.7001 42.5999L25.5001 40.5999C26.1944 38.8642 25.9848 38.2583 25.9173 38.0631C25.907 38.0334 25.9001 38.0132 25.9001 37.9999Z" fill="#4D7AE3"/>
<path fill-rule="evenodd" clip-rule="evenodd" d="M28.4001 27.9999L27 25.4999L25.9062 27.6999L26.6001 28.8999C27.2001 30.1999 27.2001 30.7999 27.0001 30.8999C26.9001 31.0999 26.3001 31.4017 26.1001 31.3017C25.6001 31.2017 24.5001 30.8017 24.4001 31.3017C24.2001 31.9017 24 32.4999 24.0001 32.9999H26.7001C27.3001 32.9999 28.1001 32.7999 28.7001 32.0999C29.4001 31.1999 29.3001 29.7999 28.4001 27.9999Z" fill="#4D7AE3"/>
<path d="M33.5001 22.2999C33.3001 23.6999 32.9001 25.2999 31.8001 25.5999C30.8001 25.7999 29.6001 25.0999 29.0001 24.5999L27 25.4999C28 26.3999 30.0001 27.6999 31.4001 27.6999C31.9001 27.6999 32.3001 27.5999 32.8001 27.3999C34.4001 26.6999 35.3001 24.8999 35.5001 21.9999L33.5001 22.2999Z" fill="#4D7AE3"/>
<path fill-rule="evenodd" clip-rule="evenodd" d="M37.1078 20.0124V15.0612V13.8612V13.6612C37.1078 13.1612 37.0078 12.5612 36.9078 11.9612C37.0533 11.982 37.2117 12.0071 37.3804 12.0338L37.3804 12.0339C38.0235 12.1357 38.8157 12.2612 39.6078 12.2612C41.4078 12.2612 43.3078 11.9612 44.9078 10.6612C48.5078 7.86124 48.3078 1.86124 48.2078 1.56124C48.2078 1.16124 47.9078 0.761244 47.5078 0.661244C47.3078 0.561244 41.4078 -1.23876 37.9078 1.56124C36.1078 2.96124 35.3078 5.26124 34.9078 7.16124C34.8578 7.11125 34.8078 7.03625 34.7578 6.96126L34.7578 6.96124L34.7578 6.96123C34.7078 6.88624 34.6578 6.81124 34.6078 6.76124C31.2078 3.46124 25.2078 4.46124 24.9078 4.56124C24.5078 4.66124 24.1078 4.96124 24.1078 5.36124C24.1078 5.38547 24.102 5.44688 24.093 5.54103L24.093 5.54104C23.9905 6.61276 23.4824 11.9278 26.6078 14.9612C28.7078 16.9612 31.7078 17.3612 33.9078 17.3612C34.4078 17.3612 34.9078 17.3612 35.2078 17.2612V20.0567C27.805 20.7105 22 26.9273 22 34.4999C22 42.5081 28.4919 48.9999 36.5 48.9999C44.5081 48.9999 51 42.5081 51 34.4999C51 26.6954 44.8341 20.3311 37.1078 20.0124ZM46.3078 2.26124C44.8078 1.96124 41.3078 1.36124 39.2078 3.06124C37.5078 4.36124 36.9078 6.66124 36.7078 8.36124L41.0078 4.96124C41.4078 4.66124 42.1078 4.76124 42.4078 5.16124C42.7078 5.56124 42.6078 6.26124 42.2078 6.56124L37.9078 9.96124C39.6078 10.1612 42.0078 10.2612 43.7078 8.96124C45.9078 7.26124 46.2078 3.76124 46.3078 2.26124ZM27.9078 13.5612C25.9078 11.5612 25.8078 7.96124 25.9078 6.46124C32 4.49994 34.6078 10.9999 34.6078 10.9999C34.6078 10.9999 35.0078 13.1612 35.0078 14.0612L29.8078 8.86124C29.4078 8.46124 28.8078 8.46124 28.4078 8.86124C28.0078 9.26124 28.0078 9.86125 28.4078 10.2612L33.6078 15.4612C32.0078 15.4612 29.5078 15.1612 27.9078 13.5612ZM49 34.4999C49 41.4035 43.4036 46.9999 36.5 46.9999C29.5964 46.9999 24 41.4035 24 34.4999C24 27.5964 29.5964 21.9999 36.5 21.9999C43.4036 21.9999 49 27.5964 49 34.4999Z" fill="#4D7AE3"/>
</svg>
