<svg width="72" height="62" viewBox="0 0 72 62" fill="none" xmlns="http://www.w3.org/2000/svg">
<path d="M57.8421 39.5421V28.1737H51M13.6316 40.8053V28.1737H23" stroke="#4D7AE3" stroke-width="2" stroke-linecap="round" stroke-linejoin="round"/>
<path d="M44.8346 14.0977L59.4861 14.5157C59.4014 14.3729 59.3023 14.2391 59.1903 14.1165L47.54 1.32103C47.314 1.07547 47.0413 0.877352 46.738 0.738225L44.8346 14.0977Z" fill="#4D7AE3"/>
<path d="M41.9898 20.6397L44.8372 0.638956C44.5167 0.750271 44.2223 0.925813 43.972 1.15484L22.5207 20.6967C22.2668 20.9278 22.0629 21.2084 21.9216 21.5213L41.9898 20.6397Z" fill="#4D7AE3"/>
<path d="M44.5662 15.9849L43.7547 21.6852C43.7246 21.9013 43.6208 22.1005 43.4607 22.2488C43.3007 22.3972 43.0943 22.4857 42.8765 22.4993L42.8588 22.5004L37.2233 22.7479L36.2399 37.8523C36.7373 37.7795 37.2015 37.5592 37.5724 37.2199L59.0238 17.6793C59.3954 17.3415 59.6575 16.9003 59.7764 16.4124L44.5662 15.9849Z" fill="#4D7AE3"/>
<path d="M35.3186 22.83L21.8461 23.4168C21.9581 23.7291 22.1304 24.0164 22.3531 24.2623L34.0032 37.054C34.115 37.1754 34.238 37.2859 34.3706 37.3842L35.3186 22.83Z" fill="#4D7AE3"/>
<path d="M27.5264 55.5956H40.4927" stroke="#4D7AE3" stroke-width="2" stroke-linecap="round" stroke-linejoin="round"/>
<path d="M63.3394 33.2188L60.0665 43.7914L54.952 46.6966C54.3155 47.0298 53.8374 47.6022 53.6229 48.2879C53.4084 48.9735 53.475 49.7163 53.8082 50.3529C54.1414 50.9894 54.7137 51.4675 55.3994 51.682C56.0851 51.8965 56.8279 51.8298 57.4644 51.4966L62.2947 49.1585M57.4644 51.4878L51.4935 54.4145L42.8497 54.4423C42.3622 54.4396 41.8901 54.6131 41.5205 54.9309C41.1509 55.2488 40.9086 55.6895 40.8383 56.1719C40.768 56.6543 40.8744 57.1459 41.138 57.556C41.4015 57.9661 41.8044 58.2671 42.2724 58.4036L46.0619 59.5404C48.5322 60.2845 51.1268 60.5249 53.6917 60.2473C56.2567 59.9697 58.7397 59.1797 60.9936 57.9244C63.2475 56.669 65.2264 54.9738 66.8127 52.9392C68.3991 50.9046 69.5607 48.5722 70.2286 46.0802L70.2842 45.8731M8.15074 33.2188L11.4248 43.7914L16.5394 46.6966C17.1759 47.03 17.6539 47.6025 17.8683 48.2883C18.0827 48.9741 18.0159 49.717 17.6825 50.3535C17.3492 50.99 16.7767 51.468 16.0909 51.6824C15.4051 51.8968 14.6622 51.83 14.0257 51.4966L9.19537 49.1585M14.0257 51.4878L19.9979 54.4145L25.2425 54.4423C25.5792 54.4427 25.9105 54.5271 26.2063 54.688C26.502 54.8489 26.7529 55.0811 26.9362 55.3636C27.1194 55.6461 27.2291 55.9699 27.2554 56.3055C27.2817 56.6412 27.2237 56.9781 27.0867 57.2857C24.837 62.3687 14.9427 59.7716 13.6341 59.3244C10.6441 58.3006 7.95171 56.557 5.79431 54.2474C3.63691 51.9378 2.08068 49.133 1.26274 46.0802L1 45.1" stroke="#4D7AE3" stroke-width="2" stroke-linecap="round" stroke-linejoin="round"/>
<path d="M22.4737 33.2263H49" stroke="#4D7AE3" stroke-width="2" stroke-linecap="round"/>
</svg>
