<svg width="64" height="64" viewBox="0 0 64 64" fill="none" xmlns="http://www.w3.org/2000/svg">
<path fill-rule="evenodd" clip-rule="evenodd" d="M32 61.3333C48.2004 61.3333 61.3333 48.2004 61.3333 32C61.3333 15.7996 48.2004 2.66667 32 2.66667C15.7996 2.66667 2.66667 15.7996 2.66667 32C2.66667 48.2004 15.7996 61.3333 32 61.3333ZM32 64C49.6731 64 64 49.6731 64 32C64 14.3269 49.6731 0 32 0C14.3269 0 0 14.3269 0 32C0 49.6731 14.3269 64 32 64Z" fill="#49BC99"/>
<path fill-rule="evenodd" clip-rule="evenodd" d="M47.1114 20.3398C47.6601 20.8309 47.7068 21.6738 47.2158 22.2225L28.1229 43.5559C27.87 43.8385 27.5087 44 27.1294 44C26.7501 44 26.3888 43.8385 26.1358 43.5559L16.7842 33.1069C16.2932 32.5582 16.3399 31.7152 16.8886 31.2242C17.4373 30.7331 18.2802 30.7798 18.7713 31.3285L27.1294 40.6674L45.2287 20.4441C45.7198 19.8954 46.5627 19.8487 47.1114 20.3398Z" fill="#49BC99"/>
</svg>
